# xmcd
#
# Track frame offsets: 
#        150
#        18105
#        30678
#        53914
#        74584
#        90855
#        109341
#        127428
#        149628
#        180385
#        197659
#        219353
#
# Disc length: 3409 seconds
#
# Revision: 0
# Processed by: cddbd v1.5.2PL0 Copyright (c) Steve Scherf et al.
# Submitted via: ExactAudioCopy v1.2
#
DISCID=af0d4f0c
DTITLE=The Sidekicks - Texas of the North
DYEAR=2017
DGENRE=Blues
TTITLE0=Minnesota Mama
TTITLE1=On My Own
TTITLE2=Boogie Disease
TTITLE3=This Is the Blues
TTITLE4=Bad Luck
TTITLE5=Land of Hope
TTITLE6=Leaving Home
TTITLE7=Best Days
TTITLE8=Meulhörn
TTITLE9=Not an Angel
TTITLE10=Afraid to Dive
TTITLE11=I Did Allright
EXTD=
EXTT0=
EXTT1=
EXTT2=
EXTT3=
EXTT4=
EXTT5=
EXTT6=
EXTT7=
EXTT8=
EXTT9=
EXTT10=
EXTT11=
PLAYORDER=
